<svg width="1180" height="321" viewBox="0 0 1180 321" fill="none" xmlns="http://www.w3.org/2000/svg">
<path d="M851.465 321C830.374 321 812.377 316.922 797.473 308.767C782.569 300.612 771.18 289.364 763.306 275.022C755.432 260.399 751.495 243.949 751.495 225.67C751.495 207.954 755.995 191.925 764.993 177.583C773.992 162.961 786.084 151.431 801.269 142.995C816.454 134.277 833.468 129.919 852.309 129.919C876.774 129.919 896.88 137.089 912.628 151.431C928.657 165.492 939.343 185.457 944.686 211.329L807.596 257.728C817.72 272.913 832.624 280.506 852.309 280.506C859.62 280.506 866.51 279.24 872.977 276.71C879.726 274.179 886.194 270.804 892.381 266.586L913.893 301.597C904.332 307.502 894.068 312.283 883.101 315.938C872.134 319.313 861.588 321 851.465 321ZM797.895 223.139C797.895 225.389 798.035 227.779 798.317 230.31L891.959 196.987C888.585 189.113 883.523 182.223 876.774 176.318C870.025 170.131 860.604 167.038 848.512 167.038C833.608 167.038 821.376 172.241 811.815 182.645C802.535 193.05 797.895 206.548 797.895 223.139Z" fill="url(#paint0_linear_2435_6697)"/>
<path d="M1067.66 321C1050.79 321 1035.6 317.485 1022.1 310.455C1008.61 303.424 997.779 293.02 989.624 279.24C981.75 265.461 977.813 248.167 977.813 227.357C977.813 207.11 981.891 189.816 990.046 175.474C998.482 160.852 1009.45 149.603 1022.95 141.729C1036.73 133.856 1051.63 129.919 1067.66 129.919C1084.25 129.919 1097.61 133.152 1107.73 139.62C1118.14 145.807 1126.43 153.259 1132.62 161.976L1135.99 137.933H1179.44V316.36H1132.2V290.208C1129.1 293.863 1124.6 298.081 1118.7 302.862C1112.79 307.643 1105.48 311.861 1096.76 315.516C1088.33 319.172 1078.63 321 1067.66 321ZM1080.74 282.193C1093.39 282.193 1104.22 278.819 1113.22 272.07C1122.21 265.321 1128.54 256.041 1132.2 244.23V205.423C1128.82 194.456 1122.35 185.598 1112.79 178.849C1103.23 172.1 1091.98 168.725 1079.05 168.725C1069.21 168.725 1060.21 171.116 1052.05 175.896C1044.18 180.396 1037.71 187.004 1032.65 195.721C1027.87 204.158 1025.48 213.859 1025.48 224.827C1025.48 235.513 1028.01 245.214 1033.07 253.932C1038.13 262.649 1044.74 269.539 1052.9 274.601C1061.33 279.662 1070.61 282.193 1080.74 282.193Z" fill="url(#paint1_linear_2435_6697)"/>
<path d="M118.494 21.0908H186.828V260.681H334.885V316.36H118.494V21.0908Z" fill="url(#paint2_linear_2435_6697)"/>
<path d="M643.166 316.36L642.745 139.199L555.851 285.146H525.059L438.587 142.995V316.36H374.471V21.0908H430.994L541.509 204.58L650.337 21.0908H706.438L707.282 316.36H643.166Z" fill="url(#paint3_linear_2435_6697)"/>
<path d="M0 109.847H65.9083V316.36H0V109.847Z" fill="url(#paint4_linear_2435_6697)"/>
<path d="M60.0068 59.0319L35.1511 83.4839L10.2954 59.0319C5.37945 54.1957 2.03168 48.0341 0.675403 41.3262C-0.680875 34.6184 0.0152589 27.6655 2.67577 21.3468C5.33629 15.0281 9.84169 9.62747 15.6222 5.82778C21.4028 2.02808 28.1989 0 35.1511 0C42.1033 0 48.8994 2.02808 54.68 5.82778C60.4605 9.62747 64.9659 15.0281 67.6264 21.3468C70.2869 27.6655 70.9831 34.6184 69.6268 41.3262C68.2705 48.0341 64.9228 54.1957 60.0068 59.0319ZM35.1511 49.9488C39.2945 49.9488 43.2682 48.3296 46.198 45.4473C49.1278 42.5651 50.7738 38.656 50.7738 34.5799C50.7738 30.5038 49.1278 26.5946 46.198 23.7124C43.2682 20.8301 39.2945 19.2109 35.1511 19.2109C31.0077 19.2109 27.034 20.8301 24.1042 23.7124C21.1744 26.5946 19.5284 30.5038 19.5284 34.5799C19.5284 38.656 21.1744 42.5651 24.1042 45.4473C27.034 48.3296 31.0077 49.9488 35.1511 49.9488ZM35.1511 42.2643C33.0794 42.2643 31.0926 41.4547 29.6276 40.0136C28.1627 38.5725 27.3397 36.6179 27.3397 34.5799C27.3397 32.5418 28.1627 30.5872 29.6276 29.1461C31.0926 27.705 33.0794 26.8954 35.1511 26.8954C37.2228 26.8954 39.2096 27.705 40.6746 29.1461C42.1395 30.5872 42.9625 32.5418 42.9625 34.5799C42.9625 36.6179 42.1395 38.5725 40.6746 40.0136C39.2096 41.4547 37.2228 42.2643 35.1511 42.2643Z" fill="url(#paint5_linear_2435_6697)"/>
<defs>
<linearGradient id="paint0_linear_2435_6697" x1="973.246" y1="0.000132788" x2="973.246" y2="421.813" gradientUnits="userSpaceOnUse">
<stop stop-color="#1CAEFB"/>
<stop offset="1" stop-color="#1C84F5"/>
</linearGradient>
<linearGradient id="paint1_linear_2435_6697" x1="973.246" y1="0.000132788" x2="973.246" y2="421.813" gradientUnits="userSpaceOnUse">
<stop stop-color="#1CAEFB"/>
<stop offset="1" stop-color="#1C84F5"/>
</linearGradient>
<linearGradient id="paint2_linear_2435_6697" x1="413.025" y1="-92.2714" x2="413.025" y2="421.813" gradientUnits="userSpaceOnUse">
<stop stop-color="#1CAEFB"/>
<stop offset="1" stop-color="#1C84F5"/>
</linearGradient>
<linearGradient id="paint3_linear_2435_6697" x1="413.025" y1="-92.2714" x2="413.025" y2="421.813" gradientUnits="userSpaceOnUse">
<stop stop-color="#1CAEFB"/>
<stop offset="1" stop-color="#1C84F5"/>
</linearGradient>
<linearGradient id="paint4_linear_2435_6697" x1="32.9542" y1="109.847" x2="32.9542" y2="316.36" gradientUnits="userSpaceOnUse">
<stop stop-color="#1CA4FA"/>
<stop offset="1" stop-color="#1C8EF7"/>
</linearGradient>
<linearGradient id="paint5_linear_2435_6697" x1="35.1511" y1="0" x2="35.1511" y2="83.4839" gradientUnits="userSpaceOnUse">
<stop stop-color="#1CA5FA"/>
<stop offset="0.9999" stop-color="#1C8EF7"/>
<stop offset="1" stop-opacity="0"/>
</linearGradient>
</defs>
</svg>
