<svg width="1181" height="322" viewBox="0 0 1181 322" fill="none" xmlns="http://www.w3.org/2000/svg">
<path d="M852.591 321.424C831.472 321.424 813.451 317.341 798.528 309.176C783.604 301.01 772.2 289.747 764.315 275.386C756.431 260.744 752.489 244.271 752.489 225.968C752.489 208.229 756.994 192.179 766.005 177.818C775.016 163.176 787.124 151.631 802.329 143.184C817.534 134.455 834.57 130.09 853.436 130.09C877.933 130.09 898.066 137.271 913.835 151.631C929.885 165.71 940.585 185.702 945.935 211.608L808.664 258.069C818.801 273.274 833.725 280.877 853.436 280.877C860.757 280.877 867.656 279.61 874.132 277.075C880.89 274.541 887.366 271.162 893.561 266.938L915.102 301.995C905.528 307.908 895.25 312.695 884.269 316.356C873.287 319.735 862.728 321.424 852.591 321.424ZM798.95 223.434C798.95 225.687 799.091 228.08 799.372 230.615L893.139 197.247C889.76 189.363 884.691 182.464 877.933 176.551C871.175 170.356 861.742 167.259 849.634 167.259C834.711 167.259 822.462 172.468 812.888 182.887C803.596 193.305 798.95 206.821 798.95 223.434Z" fill="#FAFAFA"/>
<path d="M1069.07 321.424C1052.18 321.424 1036.97 317.905 1023.46 310.865C1009.94 303.826 999.099 293.407 990.933 279.61C983.049 265.812 979.107 248.495 979.107 227.658C979.107 207.384 983.189 190.067 991.355 175.706C999.803 161.064 1010.78 149.801 1024.3 141.917C1038.1 134.032 1053.02 130.09 1069.07 130.09C1085.68 130.09 1099.06 133.328 1109.2 139.805C1119.62 146 1127.92 153.461 1134.12 162.19L1137.5 138.115H1181V316.778H1133.69V290.591C1130.6 294.252 1126.09 298.476 1120.18 303.262C1114.27 308.049 1106.94 312.273 1098.22 315.934C1089.77 319.594 1080.05 321.424 1069.07 321.424ZM1082.17 282.566C1094.84 282.566 1105.68 279.187 1114.69 272.429C1123.7 265.671 1130.03 256.379 1133.69 244.553V205.695C1130.32 194.713 1123.84 185.843 1114.27 179.085C1104.69 172.327 1093.43 168.948 1080.48 168.948C1070.62 168.948 1061.61 171.342 1053.44 176.129C1045.56 180.634 1039.08 187.251 1034.01 195.98C1029.23 204.428 1026.83 214.142 1026.83 225.124C1026.83 235.824 1029.37 245.538 1034.44 254.267C1039.51 262.996 1046.12 269.895 1054.29 274.964C1062.74 280.032 1072.03 282.566 1082.17 282.566Z" fill="#FAFAFA"/>
<path d="M118.651 21.1185H187.075V261.025H335.327V316.778H118.651V21.1185Z" fill="#FAFAFA"/>
<path d="M644.017 316.778L643.595 139.382L556.586 285.523H525.753L439.167 143.184V316.778H374.967V21.1185H431.564L542.225 204.85L651.197 21.1185H707.373L708.217 316.778H644.017Z" fill="#FAFAFA"/>
<path d="M0 109.992H65.9955V316.778H0V109.992Z" fill="#FAFAFA"/>
<path d="M60.0862 59.1099L35.1976 83.5943L10.309 59.1099C5.38657 54.2674 2.03437 48.0976 0.676296 41.3809C-0.681775 34.6641 0.015279 27.7021 2.67931 21.375C5.34335 15.048 9.85471 9.6402 15.6429 5.83548C21.4311 2.03076 28.2362 0 35.1976 0C42.159 0 48.9641 2.03076 54.7523 5.83548C60.5405 9.6402 65.0518 15.048 67.7159 21.375C70.3799 27.7021 71.077 34.6641 69.7189 41.3809C68.3608 48.0976 65.0086 54.2674 60.0862 59.1099ZM35.1976 50.0149C39.3465 50.0149 43.3254 48.3935 46.2591 45.5074C49.1928 42.6214 50.841 38.7071 50.841 34.6256C50.841 30.5441 49.1928 26.6298 46.2591 23.7437C43.3254 20.8577 39.3465 19.2363 35.1976 19.2363C31.0487 19.2363 27.0698 20.8577 24.1361 23.7437C21.2024 26.6298 19.5542 30.5441 19.5542 34.6256C19.5542 38.7071 21.2024 42.6214 24.1361 45.5074C27.0698 48.3935 31.0487 50.0149 35.1976 50.0149ZM35.1976 42.3202C33.1231 42.3202 31.1337 41.5095 29.6668 40.0665C28.2 38.6235 27.3759 36.6663 27.3759 34.6256C27.3759 32.5848 28.2 30.6277 29.6668 29.1846C31.1337 27.7416 33.1231 26.9309 35.1976 26.9309C37.272 26.9309 39.2615 27.7416 40.7284 29.1846C42.1952 30.6277 43.0193 32.5848 43.0193 34.6256C43.0193 36.6663 42.1952 38.6235 40.7284 40.0665C39.2615 41.5095 37.272 42.3202 35.1976 42.3202Z" fill="#FAFAFA"/>
</svg>
